<svg xmlns="http://www.w3.org/2000/svg" viewBox="0 0 32 32">
  <!-- Background circle with German flag gradient -->
  <defs>
    <linearGradient id="de" x1="0%" y1="0%" x2="0%" y2="100%">
      <stop offset="0%" style="stop-color:#000000"/>
      <stop offset="33%" style="stop-color:#000000"/>
      <stop offset="33%" style="stop-color:#DD0000"/>
      <stop offset="66%" style="stop-color:#DD0000"/>
      <stop offset="66%" style="stop-color:#FFCC00"/>
      <stop offset="100%" style="stop-color:#FFCC00"/>
    </linearGradient>
  </defs>
  <circle cx="16" cy="16" r="15" fill="url(#de)" stroke="#333" stroke-width="1"/>
  <!-- Book icon -->
  <path d="M8 8h7v16H8c-1 0-2-1-2-2V10c0-1 1-2 2-2z" fill="white" opacity="0.9"/>
  <path d="M17 8h7c1 0 2 1 2 2v12c0 1-1 2-2 2h-7V8z" fill="white" opacity="0.9"/>
  <path d="M16 8v16" stroke="#333" stroke-width="1"/>
  <!-- Text lines -->
  <line x1="9" y1="12" x2="14" y2="12" stroke="#333" stroke-width="1"/>
  <line x1="9" y1="15" x2="13" y2="15" stroke="#333" stroke-width="1"/>
  <line x1="18" y1="12" x2="23" y2="12" stroke="#333" stroke-width="1"/>
  <line x1="18" y1="15" x2="22" y2="15" stroke="#333" stroke-width="1"/>
</svg>
